HIERARCHY
ROOT Hips
{
	OFFSET 0.00000 0.00000 0.00000
	CHANNELS 6 Xposition Yposition Zposition Zrotation Yrotation Xrotation 
	JOINT LHipJoint
	{
		OFFSET 0 0 0
		CHANNELS 3 Zrotation Yrotation Xrotation
		JOINT LeftHip
		{
			OFFSET 1.44361 -1.63093 0.70831
			CHANNELS 3 Zrotation Yrotation Xrotation
			JOINT LeftKnee
			{
				OFFSET 2.20103 -6.04728 0.00000
				CHANNELS 3 Zrotation Yrotation Xrotation
				JOINT LeftAnkle
				{
					OFFSET 2.54154 -6.98283 0.00000
					CHANNELS 3 Zrotation Yrotation Xrotation
					JOINT LeftToe
					{
						OFFSET 0.05971 -0.16406 1.77582
						CHANNELS 3 Zrotation Yrotation Xrotation
						End Site
						{
							OFFSET 0.00000 -0.00000 0.90832
						}
					}
				}
			}
		}
	}
	JOINT RHipJoint
	{
		OFFSET 0 0 0
		CHANNELS 3 Zrotation Yrotation Xrotation
		JOINT RightHip
		{
			OFFSET -1.65838 -1.63093 0.70830
			CHANNELS 3 Zrotation Yrotation Xrotation
			JOINT RightKnee
			{
				OFFSET -2.26926 -6.23475 0.00000
				CHANNELS 3 Zrotation Yrotation Xrotation
				JOINT RightAnkle
				{
					OFFSET -2.34808 -6.45129 0.00000
					CHANNELS 3 Zrotation Yrotation Xrotation
					JOINT RightToe
					{
						OFFSET -0.18633 -0.51195 1.68539
						CHANNELS 3 Zrotation Yrotation Xrotation
						End Site
						{
							OFFSET -0.00000 -0.00000 0.88927
						}
					}
				}
			}
		}
	}
	JOINT lowerback
	{
		OFFSET 0 0 0
		CHANNELS 3 Zrotation Yrotation Xrotation
		JOINT Chest
		{
			OFFSET -0.10393 2.01691 0.06920
			CHANNELS 3 Zrotation Yrotation Xrotation
			JOINT Chest2
			{
				OFFSET 0.04092 2.01302 -0.05283
				CHANNELS 3 Zrotation Yrotation Xrotation
				JOINT lowerneck
				{
					OFFSET 0 0 0
					CHANNELS 3 Zrotation Yrotation Xrotation
					JOINT Neck
					{
						OFFSET -0.02870 1.58978 -0.03113
						CHANNELS 3 Zrotation Yrotation Xrotation
						JOINT Head
						{
							OFFSET 0.11532 1.54326 -0.29195
							CHANNELS 3 Zrotation Yrotation Xrotation
							End Site
							{
								OFFSET 0.04056 1.59999 -0.09535
							}
						}
					}
				}
				JOINT LeftCollar
				{
					OFFSET 0 0 0
					CHANNELS 3 Zrotation Yrotation Xrotation
					JOINT LeftShoulder
					{
						OFFSET 3.30641 1.15764 0.01104
CHANNELS 3 Zrotation Xrotation Yrotation
						JOINT LeftElbow
						{
OFFSET 0 -4.632080 0.000000
CHANNELS 3 Zrotation Xrotation Yrotation
							JOINT LeftWrist
							{
OFFSET 0 -3.419240 -0.000000
CHANNELS 3 Zrotation Xrotation Yrotation
								JOINT lhand
								{
									OFFSET 0 0 0
CHANNELS 3 Zrotation Xrotation Yrotation
									JOINT LFingers
									{
OFFSET 0 -0.625370 -0.000000
CHANNELS 3 Zrotation Xrotation Yrotation
										End Site
										{
OFFSET 0 -0.504190 -0.000000
										}
									}
								}
								JOINT LThumb
								{
OFFSET 0 0.000000 0.000000
CHANNELS 3 Zrotation Xrotation Yrotation
									End Site
									{
OFFSET 0 -0.511890 0.511890
									}
								}
							}
						}
					}
				}
				JOINT RightCollar
				{
					OFFSET 0 0 0
					CHANNELS 3 Zrotation Yrotation Xrotation
					JOINT RightShoulder
					{
						OFFSET -3.78081 1.02180 -0.16609
CHANNELS 3 Zrotation Xrotation Yrotation
						JOINT RightElbow
						{
OFFSET 0 -4.406400 -0.000000
CHANNELS 3 Zrotation Xrotation Yrotation
							JOINT RightWrist
							{
OFFSET 0 -3.446750 0.000000
CHANNELS 3 Zrotation Xrotation Yrotation
								JOINT rhand
								{
									OFFSET 0 0 0
CHANNELS 3 Zrotation Xrotation Yrotation
									JOINT RFingers
									{
OFFSET 0 -0.513670 -0.000000
CHANNELS 3 Zrotation Xrotation Yrotation
										End Site
										{
OFFSET 0 -0.414140 -0.000000
										}
									}
								}
								JOINT RThumb
								{
OFFSET 0 0.000000 0.000000
CHANNELS 3 Zrotation Xrotation Yrotation
									End Site
									{
OFFSET 0 -0.420460 0.420460
									}
								}
							}
						}
					}
				}
			}
		}
	}
}
MOTION
Frames: 12
Frame Time: 0.008333333333333333
10.155700 16.313900 -7.668400 -0.281200 -4.403800 10.017800 0.000000 0.000000 0.000000 -17.837400 -6.688400 -2.180400 0.045600 1.378800 3.791700 0.394100 -3.414700 -11.179200 8.473000 -16.456400 -54.249000 0.000000 0.000000 0.000000 14.010500 5.150100 -2.319400 -0.042000 -1.322600 3.637000 -0.367800 -0.029200 -11.468200 -3.521000 11.494100 -33.964900 -7.128500 -1.287900 -9.824300 0.440700 -0.959000 -0.960500 4.349300 -0.615900 4.637700 -6.946700 -10.212500 -4.273900 7.956400 -13.905900 7.392400 2.755000 -6.769300 3.946500 0.000000 -0.000000 0.000000 7.214000 6.369200 -32.508100 36.230900 -45.671300 15.687400 32.434200 16.461700 19.511100 0.000000 0.000000 0.000000 -7.125000 0.000000 0.000000 2.616100 7.225600 2.268700 0.000000 -0.000000 0.000000 -5.297600 9.192100 27.405600 -45.335500 -50.931800 -22.498900 -21.949400 46.555800 41.183000 0.000000 0.000000 0.000000 7.125000 0.000000 -0.000000 23.276700 72.132200 -15.249800
10.100598 16.319186 -7.654260 -0.055756 -4.290548 10.434251 0.000000 0.000000 0.000000 -17.839850 -7.109045 -2.696427 0.054843 1.511126 4.156439 0.397350 -3.672340 -11.214752 8.019999 -16.133958 -52.634766 0.000000 0.000000 0.000000 13.946706 5.268479 -3.088088 -0.059928 -1.579769 4.345583 -0.397728 0.168230 -11.856803 -3.559897 11.550504 -34.159795 -7.077213 -1.268056 -10.248473 0.355895 -0.910145 -1.235519 4.235639 -0.580380 4.575956 -7.096646 -10.058186 -4.125336 8.110033 -13.713012 7.427495 2.844079 -6.675401 3.939398 0.000000 0.000000 0.000000 5.722892 -0.486145 -22.783478 13.570706 -22.066736 2.699480 21.850859 28.460191 16.627724 0.000000 0.000000 0.000000 -7.125000 0.000000 0.000000 -3.959882 12.175325 -3.042013 0.000000 0.000000 0.000000 -4.690407 5.880747 20.342399 -24.935779 -36.093235 -8.270977 -19.072578 45.860698 44.964097 0.000000 0.000000 0.000000 7.125000 0.000000 0.000000 34.780894 74.142254 -24.679266
10.041939 16.300281 -7.588959 0.028395 -4.645883 10.177092 0.000000 0.000000 0.000000 -17.911950 -7.087992 -1.809806 0.047917 1.412338 3.884090 0.444928 -3.451221 -11.890917 8.044016 -16.151521 -52.721129 0.000000 0.000000 0.000000 14.049944 4.726514 -2.516151 -0.049590 -1.436821 3.951705 -0.404021 0.790116 -11.756968 -3.539334 11.520707 -34.056812 -7.350651 -1.454324 -10.334221 0.390779 -1.116258 -1.097461 4.395160 -0.699231 4.801878 -6.840482 -9.790982 -4.752960 7.917458 -13.322833 7.509329 2.745225 -6.466655 4.007183 0.000000 0.000000 0.000000 4.405673 -5.282587 56.447880 3.612458 -6.226524 0.200332 12.411804 108.124191 14.542278 0.000000 0.000000 0.000000 -7.125000 0.000000 0.000000 -10.243035 15.266114 -7.319869 0.000000 0.000000 0.000000 -4.488694 1.176594 3.691401 -10.218783 -17.057933 -1.558342 -11.440376 51.140761 45.767958 0.000000 0.000000 0.000000 7.125000 0.000000 0.000000 44.713801 71.956885 -30.359363
10.006167 16.299772 -7.537744 0.136449 -5.348344 10.418388 0.000000 0.000000 0.000000 -17.977459 -6.819115 -1.852936 0.048362 1.419289 3.903362 0.470399 -3.199159 -12.255121 8.110804 -16.199724 -52.960165 0.000000 0.000000 0.000000 13.936761 4.628609 -2.980467 -0.057536 -1.547346 4.256177 -0.409065 1.735138 -11.604277 -3.526655 11.502305 -33.993367 -7.529236 -1.306089 -10.482538 0.494708 -0.892590 -1.122414 4.638736 -0.594041 4.833342 -6.901366 -9.714440 -4.733712 7.642267 -13.129513 6.651812 2.709275 -6.395127 3.714854 0.000000 0.000000 0.000000 3.697461 -0.742314 99.649117 5.195776 -8.914091 0.405689 9.694638 154.865772 17.499622 0.000000 0.000000 0.000000 -7.125000 0.000000 0.000000 -12.023435 12.527520 -9.342510 0.000000 0.000000 0.000000 -4.170728 -0.950330 -51.476495 -5.072739 -8.707081 -0.386507 -13.351264 99.366448 41.646363 0.000000 0.000000 0.000000 7.125000 0.000000 0.000000 34.155855 69.630498 -20.963346
9.972810 16.302306 -7.519310 -0.565984 -5.427669 10.528687 0.000000 0.000000 0.000000 -16.870798 -6.772169 -1.957106 0.051441 1.464053 4.026485 0.484033 -3.142268 -12.441936 8.055199 -16.159672 -52.761083 0.000000 0.000000 0.000000 14.988876 5.459541 -2.816562 -0.059733 -1.576588 4.336981 -0.411405 1.070227 -11.789309 -3.638295 11.662861 -34.549620 -7.010555 -1.020372 -10.131923 0.701292 -0.604319 -0.932008 4.607197 -0.447506 4.795542 -6.930106 -9.568318 -4.689834 8.471066 -12.941856 5.690283 2.996701 -6.286356 3.461977 0.000000 0.000000 0.000000 3.921718 5.772317 47.463921 3.607306 -6.219298 0.196097 8.873842 95.289405 16.944652 0.000000 0.000000 0.000000 -7.125000 0.000000 0.000000 -12.570978 13.135777 -9.623495 0.000000 0.000000 0.000000 -2.969891 2.733489 -54.195619 -5.146215 -8.830979 -0.397618 -15.444008 96.373555 36.178047 0.000000 0.000000 0.000000 7.125000 0.000000 0.000000 23.917922 65.667177 -12.255104
9.965191 16.302009 -7.494316 -0.288035 -4.718070 10.295623 0.000000 0.000000 0.000000 -17.185040 -6.900123 -1.754110 0.055637 1.521354 4.184542 0.472542 -3.758543 -12.245143 7.966700 -16.094645 -52.442509 0.000000 0.000000 0.000000 14.818324 5.184926 -2.383761 -0.063173 -1.621594 4.460958 -0.433452 0.582578 -12.248360 -3.569259 11.564019 -34.206589 -7.240878 -0.962007 -9.920206 0.543268 -0.497033 -0.593987 4.585627 -0.415028 5.020950 -6.276091 -9.797245 -4.903867 8.208711 -13.269594 5.758138 2.787155 -6.437343 3.481441 0.000000 0.000000 0.000000 4.215178 9.637689 0.990053 6.285101 -10.736652 0.591330 10.524586 44.948457 15.543578 0.000000 0.000000 0.000000 -7.125000 0.000000 0.000000 -11.503683 14.402522 -8.455974 0.000000 0.000000 0.000000 -1.759733 5.912170 -31.213907 -5.735028 -9.819502 -0.493101 -16.636413 63.602973 30.699150 0.000000 0.000000 0.000000 7.125000 0.000000 0.000000 17.436816 60.918580 -6.883277
9.959500 16.303510 -7.509871 -0.448929 -4.145694 10.195107 0.000000 0.000000 0.000000 -16.897792 -7.163659 -1.802071 0.059982 1.580479 4.347517 0.464235 -3.917767 -12.128360 8.002155 -16.120848 -52.570470 0.000000 0.000000 0.000000 15.179214 5.427619 -2.202240 -0.066152 -1.659456 4.565410 -0.432951 -0.202924 -12.506503 -3.458181 11.401243 -33.646541 -7.087124 -0.928072 -9.621132 0.673614 -0.498476 -0.565039 4.636825 -0.409634 4.883606 -6.447754 -9.696897 -4.740289 7.839231 -13.146570 6.511332 2.702674 -6.386575 3.658787 0.000000 0.000000 0.000000 4.219121 9.290420 -3.904823 7.106707 -12.094744 0.753919 12.762061 39.512305 15.466039 0.000000 0.000000 0.000000 -7.125000 0.000000 0.000000 -10.006744 14.309219 -7.337437 0.000000 0.000000 0.000000 -0.922340 6.449193 -25.857886 -6.391420 -10.913364 -0.611236 -15.979914 54.274095 29.551122 0.000000 0.000000 0.000000 7.125000 0.000000 0.000000 17.307611 59.667467 -6.312598
9.961380 16.296790 -7.523145 -0.617314 -4.183721 10.424428 0.000000 0.000000 0.000000 -16.659246 -6.843066 -2.013729 0.051465 1.463850 4.026027 0.437513 -4.098289 -11.765988 7.883569 -16.032901 -52.142072 0.000000 0.000000 0.000000 15.350422 5.428491 -2.546954 -0.070622 -1.714505 4.717307 -0.426144 -0.069368 -12.359365 -3.634799 11.656816 -34.529848 -6.898655 -0.961821 -9.914786 0.786840 -0.552904 -0.731858 4.641900 -0.428911 4.878295 -6.909388 -9.390068 -3.834744 8.117281 -12.763988 6.384488 2.928778 -6.222935 3.492354 0.000000 0.000000 0.000000 4.260737 8.633091 -8.083798 8.198590 -13.873668 0.999814 16.897059 36.445916 15.812468 0.000000 0.000000 0.000000 -7.125000 0.000000 0.000000 -7.234690 13.586309 -5.376729 0.000000 0.000000 0.000000 -0.986749 7.122210 -10.795751 -8.058727 -13.646322 -0.967740 -19.764981 45.119812 26.965198 0.000000 0.000000 0.000000 7.125000 0.000000 0.000000 11.659684 57.994205 -3.741188
9.957800 16.299871 -7.559520 -0.600286 -4.261594 10.565505 0.000000 0.000000 0.000000 -16.548161 -6.781086 -2.490810 0.056578 1.534920 4.222055 0.429791 -4.104109 -11.661036 7.977374 -16.102472 -52.480967 0.000000 0.000000 0.000000 15.369829 6.020359 -2.803313 -0.075620 -1.773583 4.880347 -0.417407 -0.490432 -12.391656 -3.540734 11.522768 -34.064041 -6.896936 -0.973014 -9.825662 0.783788 -0.574405 -0.727045 4.634704 -0.438149 4.836271 -6.439564 -9.077161 -5.085112 7.373049 -12.308141 7.436992 2.587277 -5.970141 3.904990 0.000000 0.000000 0.000000 5.134841 8.695621 -17.959585 11.583016 -19.169334 1.968581 22.884514 26.185531 18.489639 0.000000 0.000000 0.000000 -7.125000 0.000000 0.000000 -3.417501 10.053455 -2.765276 0.000000 0.000000 0.000000 -1.701446 8.589119 7.153634 -12.616849 -20.715104 -2.321773 -16.131513 31.742776 34.235942 0.000000 0.000000 0.000000 7.125000 0.000000 0.000000 21.196388 64.066055 -10.126598
9.960037 16.302137 -7.601990 -0.362443 -4.737413 10.257265 0.000000 0.000000 0.000000 -16.861179 -6.789435 -2.339728 0.058945 1.566964 4.310305 0.450263 -3.668606 -11.950832 8.068621 -16.169431 -52.809366 0.000000 0.000000 0.000000 15.046635 6.243357 -2.861999 -0.082991 -1.858063 5.113517 -0.413711 -0.418006 -12.309403 -3.671140 11.709287 -34.711482 -7.047130 -0.724942 -9.444359 0.708530 -0.249842 -0.605891 4.684998 -0.278858 4.707733 -5.664983 -7.969877 -6.563833 6.398803 -10.805317 9.037654 2.195178 -5.198289 4.434909 0.000000 0.000000 0.000000 7.838864 10.760818 -29.742273 20.739394 -31.511365 5.918554 33.836539 20.645866 24.730316 0.000000 0.000000 0.000000 -7.125000 0.000000 0.000000 2.602106 0.990822 2.565841 0.000000 0.000000 0.000000 -3.999912 12.408110 21.121420 -23.328484 -34.430906 -7.329964 -24.089635 29.045358 20.197905 0.000000 0.000000 0.000000 7.125000 0.000000 0.000000 4.474086 51.873236 -0.762120
9.962188 16.304861 -7.620066 -0.107430 -4.980507 10.115190 0.000000 0.000000 0.000000 -17.338940 -6.787653 -2.067133 0.054820 1.510331 4.154172 0.452264 -3.483685 -11.989334 7.963824 -16.092589 -52.432151 0.000000 0.000000 0.000000 14.649988 5.343095 -2.961280 -0.074560 -1.761951 4.848339 -0.403720 0.447124 -11.855080 -3.901431 12.027515 -35.830007 -7.124320 -0.591373 -10.217813 0.710630 -0.000649 -0.544891 4.769865 -0.176451 5.173216 -4.580433 -5.427933 -7.101120 5.220632 -7.445220 11.408040 1.867676 -3.538349 4.957529 0.000000 0.000000 0.000000 12.810918 10.657427 -39.763997 34.449668 -44.393816 14.433877 46.420062 12.184281 29.264435 0.000000 0.000000 0.000000 -7.125000 0.000000 0.000000 8.686023 -8.736110 10.016075 0.000000 0.000000 0.000000 -8.302395 14.052732 30.352871 -40.130354 -48.124815 -18.542942 -28.905246 36.842514 16.078228 0.000000 0.000000 0.000000 7.125000 0.000000 0.000000 -1.136637 48.199773 0.088726
9.948105 16.306637 -7.688692 -0.387822 -5.168337 9.707949 0.000000 0.000000 0.000000 -16.907142 -6.867213 -1.993289 0.062137 1.608317 4.424406 0.461269 -3.065723 -12.144497 8.099088 -16.191649 -52.918778 0.000000 0.000000 0.000000 15.078760 5.744003 -2.803263 -0.079065 -1.813882 4.991684 -0.392837 0.254370 -11.753524 -3.788531 11.873326 -35.285537 -6.686946 -0.312288 -9.957244 0.786044 0.297550 -0.516193 4.642072 -0.014990 5.017540 -3.560869 -3.234735 -9.334407 4.383903 -4.584530 15.511086 1.600776 -2.082395 6.433542 0.000000 0.000000 0.000000 18.398296 6.135150 -46.289059 51.184616 -53.432134 27.130864 56.574712 6.949007 31.090514 0.000000 0.000000 0.000000 -7.125000 0.000000 0.000000 13.443795 -16.502237 17.102731 0.000000 0.000000 0.000000 -13.119787 10.287924 36.842255 -57.665411 -55.632646 -32.411052 -32.450046 44.989691 13.932593 0.000000 0.000000 0.000000 7.125000 0.000000 0.000000 -4.764657 46.306871 0.154346
